<mxfile host="app.diagrams.net" agent="Mozilla/5.0 (Windows NT 10.0; Win64; x64) AppleWebKit/537.36 (KHTML, like Gecko) Chrome/138.0.0.0 Safari/537.36" version="27.1.6">
  <diagram name="PÃ¡gina-1" id="f31zHnfb2NSgmmjpOPjm">
    <mxGraphModel dx="1261" dy="534" grid="0" gridSize="10" guides="1" tooltips="1" connect="1" arrows="1" fold="1" page="1" pageScale="1" pageWidth="827" pageHeight="1169" math="0" shadow="0">
      <root>
        <mxCell id="0" />
        <mxCell id="1" parent="0" />
        <mxCell id="CdOAhMPhGqLmjzs1Hvdx-1" value="" style="endArrow=classic;html=1;rounded=0;" edge="1" parent="1">
          <mxGeometry width="50" height="50" relative="1" as="geometry">
            <mxPoint x="54" y="500" as="sourcePoint" />
            <mxPoint x="54" y="300" as="targetPoint" />
          </mxGeometry>
        </mxCell>
        <mxCell id="CdOAhMPhGqLmjzs1Hvdx-2" value="" style="endArrow=classic;html=1;rounded=0;" edge="1" parent="1">
          <mxGeometry width="50" height="50" relative="1" as="geometry">
            <mxPoint x="24" y="470" as="sourcePoint" />
            <mxPoint x="294" y="470" as="targetPoint" />
          </mxGeometry>
        </mxCell>
        <mxCell id="CdOAhMPhGqLmjzs1Hvdx-3" value="" style="endArrow=none;html=1;rounded=0;strokeColor=default;startArrow=none;startFill=0;targetPerimeterSpacing=0;snapToPoint=0;flowAnimation=0;" edge="1" parent="1">
          <mxGeometry width="50" height="50" relative="1" as="geometry">
            <mxPoint x="64" y="440" as="sourcePoint" />
            <mxPoint x="204" y="420" as="targetPoint" />
            <Array as="points">
              <mxPoint x="84" y="400" />
              <mxPoint x="114" y="430" />
              <mxPoint x="134" y="410" />
              <mxPoint x="154" y="440" />
              <mxPoint x="184" y="350" />
            </Array>
          </mxGeometry>
        </mxCell>
        <mxCell id="CdOAhMPhGqLmjzs1Hvdx-6" value="" style="ellipse;whiteSpace=wrap;html=1;aspect=fixed;fillStyle=solid;strokeColor=default;fillColor=#000000;" vertex="1" parent="1">
          <mxGeometry x="180" y="347" width="7" height="7" as="geometry" />
        </mxCell>
        <mxCell id="CdOAhMPhGqLmjzs1Hvdx-7" value="" style="ellipse;whiteSpace=wrap;html=1;aspect=fixed;fillStyle=solid;strokeColor=default;fillColor=#000000;" vertex="1" parent="1">
          <mxGeometry x="130" y="407" width="7" height="7" as="geometry" />
        </mxCell>
        <mxCell id="CdOAhMPhGqLmjzs1Hvdx-9" value="" style="ellipse;whiteSpace=wrap;html=1;aspect=fixed;fillStyle=solid;strokeColor=default;fillColor=#000000;" vertex="1" parent="1">
          <mxGeometry x="80" y="397" width="7" height="7" as="geometry" />
        </mxCell>
        <mxCell id="CdOAhMPhGqLmjzs1Hvdx-10" value="" style="ellipse;whiteSpace=wrap;html=1;aspect=fixed;fillStyle=solid;strokeColor=default;fillColor=#000000;" vertex="1" parent="1">
          <mxGeometry x="111" y="426" width="7" height="7" as="geometry" />
        </mxCell>
        <mxCell id="CdOAhMPhGqLmjzs1Hvdx-11" value="" style="ellipse;whiteSpace=wrap;html=1;aspect=fixed;fillStyle=solid;strokeColor=default;fillColor=#000000;" vertex="1" parent="1">
          <mxGeometry x="151" y="436" width="7" height="7" as="geometry" />
        </mxCell>
        <mxCell id="CdOAhMPhGqLmjzs1Hvdx-13" value="" style="ellipse;whiteSpace=wrap;html=1;aspect=fixed;fillStyle=solid;strokeColor=default;fillColor=#000000;" vertex="1" parent="1">
          <mxGeometry x="201" y="417" width="7" height="7" as="geometry" />
        </mxCell>
        <mxCell id="CdOAhMPhGqLmjzs1Hvdx-14" value="" style="ellipse;whiteSpace=wrap;html=1;fillStyle=solid;strokeColor=default;fillColor=#000000;aspect=fixed;" vertex="1" parent="1">
          <mxGeometry x="60" y="437" width="7" height="7" as="geometry" />
        </mxCell>
        <mxCell id="CdOAhMPhGqLmjzs1Hvdx-15" value="" style="ellipse;whiteSpace=wrap;html=1;aspect=fixed;fillStyle=solid;fillColor=#000000;" vertex="1" parent="1">
          <mxGeometry x="404" y="276" width="30" height="30" as="geometry" />
        </mxCell>
        <mxCell id="CdOAhMPhGqLmjzs1Hvdx-17" value="" style="ellipse;whiteSpace=wrap;html=1;aspect=fixed;fillStyle=solid;fillColor=#000000;" vertex="1" parent="1">
          <mxGeometry x="404" y="349" width="30" height="30" as="geometry" />
        </mxCell>
        <mxCell id="CdOAhMPhGqLmjzs1Hvdx-18" value="" style="ellipse;whiteSpace=wrap;html=1;aspect=fixed;fillStyle=solid;fillColor=#000000;" vertex="1" parent="1">
          <mxGeometry x="404" y="423" width="30" height="30" as="geometry" />
        </mxCell>
        <mxCell id="CdOAhMPhGqLmjzs1Hvdx-19" value="" style="ellipse;whiteSpace=wrap;html=1;aspect=fixed;fillStyle=solid;fillColor=#000000;" vertex="1" parent="1">
          <mxGeometry x="404" y="496" width="30" height="30" as="geometry" />
        </mxCell>
        <mxCell id="CdOAhMPhGqLmjzs1Hvdx-20" value="" style="ellipse;whiteSpace=wrap;html=1;aspect=fixed;fillStyle=solid;fillColor=#000000;" vertex="1" parent="1">
          <mxGeometry x="484" y="466" width="30" height="30" as="geometry" />
        </mxCell>
        <mxCell id="CdOAhMPhGqLmjzs1Hvdx-21" value="" style="ellipse;whiteSpace=wrap;html=1;aspect=fixed;fillStyle=solid;fillColor=#000000;" vertex="1" parent="1">
          <mxGeometry x="484" y="383" width="30" height="30" as="geometry" />
        </mxCell>
        <mxCell id="CdOAhMPhGqLmjzs1Hvdx-22" value="" style="ellipse;whiteSpace=wrap;html=1;aspect=fixed;fillStyle=solid;fillColor=#000000;" vertex="1" parent="1">
          <mxGeometry x="484" y="313" width="30" height="30" as="geometry" />
        </mxCell>
        <mxCell id="CdOAhMPhGqLmjzs1Hvdx-23" value="" style="ellipse;whiteSpace=wrap;html=1;aspect=fixed;fillStyle=solid;fillColor=#000000;" vertex="1" parent="1">
          <mxGeometry x="564" y="382" width="30" height="30" as="geometry" />
        </mxCell>
        <mxCell id="CdOAhMPhGqLmjzs1Hvdx-24" value="" style="endArrow=none;html=1;rounded=0;exitX=1;exitY=0.5;exitDx=0;exitDy=0;entryX=0.316;entryY=0.084;entryDx=0;entryDy=0;strokeWidth=2;entryPerimeter=0;" edge="1" parent="1" source="CdOAhMPhGqLmjzs1Hvdx-15" target="CdOAhMPhGqLmjzs1Hvdx-22">
          <mxGeometry width="50" height="50" relative="1" as="geometry">
            <mxPoint x="474" y="450.5" as="sourcePoint" />
            <mxPoint x="524" y="400.5" as="targetPoint" />
          </mxGeometry>
        </mxCell>
        <mxCell id="CdOAhMPhGqLmjzs1Hvdx-25" value="" style="endArrow=none;html=1;rounded=0;exitX=0.96;exitY=0.674;exitDx=0;exitDy=0;entryX=0;entryY=0;entryDx=0;entryDy=0;strokeWidth=2;exitPerimeter=0;" edge="1" parent="1" source="CdOAhMPhGqLmjzs1Hvdx-15" target="CdOAhMPhGqLmjzs1Hvdx-21">
          <mxGeometry width="50" height="50" relative="1" as="geometry">
            <mxPoint x="604" y="340.5" as="sourcePoint" />
            <mxPoint x="654" y="377.5" as="targetPoint" />
          </mxGeometry>
        </mxCell>
        <mxCell id="CdOAhMPhGqLmjzs1Hvdx-26" value="" style="endArrow=none;html=1;rounded=0;exitX=1;exitY=1;exitDx=0;exitDy=0;entryX=0;entryY=0;entryDx=0;entryDy=0;strokeWidth=2;" edge="1" parent="1" source="CdOAhMPhGqLmjzs1Hvdx-15" target="CdOAhMPhGqLmjzs1Hvdx-20">
          <mxGeometry width="50" height="50" relative="1" as="geometry">
            <mxPoint x="594" y="350.5" as="sourcePoint" />
            <mxPoint x="644" y="387.5" as="targetPoint" />
          </mxGeometry>
        </mxCell>
        <mxCell id="CdOAhMPhGqLmjzs1Hvdx-27" value="" style="endArrow=none;html=1;rounded=0;exitX=1;exitY=0;exitDx=0;exitDy=0;entryX=0;entryY=0;entryDx=0;entryDy=0;strokeWidth=2;" edge="1" parent="1" source="CdOAhMPhGqLmjzs1Hvdx-17" target="CdOAhMPhGqLmjzs1Hvdx-22">
          <mxGeometry width="50" height="50" relative="1" as="geometry">
            <mxPoint x="634" y="320.5" as="sourcePoint" />
            <mxPoint x="684" y="357.5" as="targetPoint" />
          </mxGeometry>
        </mxCell>
        <mxCell id="CdOAhMPhGqLmjzs1Hvdx-28" value="" style="endArrow=none;html=1;rounded=0;exitX=1;exitY=0.5;exitDx=0;exitDy=0;entryX=0;entryY=0.5;entryDx=0;entryDy=0;strokeWidth=2;" edge="1" parent="1" source="CdOAhMPhGqLmjzs1Hvdx-17" target="CdOAhMPhGqLmjzs1Hvdx-21">
          <mxGeometry width="50" height="50" relative="1" as="geometry">
            <mxPoint x="734" y="350.5" as="sourcePoint" />
            <mxPoint x="784" y="387.5" as="targetPoint" />
          </mxGeometry>
        </mxCell>
        <mxCell id="CdOAhMPhGqLmjzs1Hvdx-29" value="" style="endArrow=none;html=1;rounded=0;exitX=1;exitY=1;exitDx=0;exitDy=0;entryX=0;entryY=0.5;entryDx=0;entryDy=0;strokeWidth=2;" edge="1" parent="1" source="CdOAhMPhGqLmjzs1Hvdx-17" target="CdOAhMPhGqLmjzs1Hvdx-20">
          <mxGeometry width="50" height="50" relative="1" as="geometry">
            <mxPoint x="704" y="430.5" as="sourcePoint" />
            <mxPoint x="754" y="467.5" as="targetPoint" />
          </mxGeometry>
        </mxCell>
        <mxCell id="CdOAhMPhGqLmjzs1Hvdx-30" value="" style="endArrow=none;html=1;rounded=0;exitX=1;exitY=0;exitDx=0;exitDy=0;entryX=0.169;entryY=0.673;entryDx=0;entryDy=0;strokeWidth=2;entryPerimeter=0;" edge="1" parent="1" source="CdOAhMPhGqLmjzs1Hvdx-18" target="CdOAhMPhGqLmjzs1Hvdx-22">
          <mxGeometry width="50" height="50" relative="1" as="geometry">
            <mxPoint x="614" y="480.5" as="sourcePoint" />
            <mxPoint x="664" y="517.5" as="targetPoint" />
          </mxGeometry>
        </mxCell>
        <mxCell id="CdOAhMPhGqLmjzs1Hvdx-31" value="" style="endArrow=none;html=1;rounded=0;exitX=1;exitY=0.5;exitDx=0;exitDy=0;entryX=0;entryY=1;entryDx=0;entryDy=0;strokeWidth=2;" edge="1" parent="1" source="CdOAhMPhGqLmjzs1Hvdx-18" target="CdOAhMPhGqLmjzs1Hvdx-21">
          <mxGeometry width="50" height="50" relative="1" as="geometry">
            <mxPoint x="614" y="460.5" as="sourcePoint" />
            <mxPoint x="664" y="497.5" as="targetPoint" />
          </mxGeometry>
        </mxCell>
        <mxCell id="CdOAhMPhGqLmjzs1Hvdx-32" value="" style="endArrow=none;html=1;rounded=0;exitX=1;exitY=1;exitDx=0;exitDy=0;entryX=0;entryY=1;entryDx=0;entryDy=0;strokeWidth=2;" edge="1" parent="1" source="CdOAhMPhGqLmjzs1Hvdx-18" target="CdOAhMPhGqLmjzs1Hvdx-20">
          <mxGeometry width="50" height="50" relative="1" as="geometry">
            <mxPoint x="774" y="490.5" as="sourcePoint" />
            <mxPoint x="824" y="527.5" as="targetPoint" />
          </mxGeometry>
        </mxCell>
        <mxCell id="CdOAhMPhGqLmjzs1Hvdx-33" value="" style="endArrow=none;html=1;rounded=0;exitX=0.702;exitY=0.053;exitDx=0;exitDy=0;strokeWidth=2;exitPerimeter=0;entryX=0.174;entryY=0.922;entryDx=0;entryDy=0;entryPerimeter=0;" edge="1" parent="1" source="CdOAhMPhGqLmjzs1Hvdx-19" target="CdOAhMPhGqLmjzs1Hvdx-22">
          <mxGeometry width="50" height="50" relative="1" as="geometry">
            <mxPoint x="674" y="510.5" as="sourcePoint" />
            <mxPoint x="484" y="330.5" as="targetPoint" />
          </mxGeometry>
        </mxCell>
        <mxCell id="CdOAhMPhGqLmjzs1Hvdx-34" value="" style="endArrow=none;html=1;rounded=0;exitX=1;exitY=0;exitDx=0;exitDy=0;entryX=0.353;entryY=1.006;entryDx=0;entryDy=0;strokeWidth=2;entryPerimeter=0;" edge="1" parent="1" source="CdOAhMPhGqLmjzs1Hvdx-19" target="CdOAhMPhGqLmjzs1Hvdx-21">
          <mxGeometry width="50" height="50" relative="1" as="geometry">
            <mxPoint x="704" y="420.5" as="sourcePoint" />
            <mxPoint x="754" y="457.5" as="targetPoint" />
          </mxGeometry>
        </mxCell>
        <mxCell id="CdOAhMPhGqLmjzs1Hvdx-35" value="" style="endArrow=none;html=1;rounded=0;exitX=0.997;exitY=0.697;exitDx=0;exitDy=0;entryX=0.5;entryY=1;entryDx=0;entryDy=0;strokeWidth=2;exitPerimeter=0;" edge="1" parent="1" source="CdOAhMPhGqLmjzs1Hvdx-19" target="CdOAhMPhGqLmjzs1Hvdx-20">
          <mxGeometry width="50" height="50" relative="1" as="geometry">
            <mxPoint x="644" y="550.5" as="sourcePoint" />
            <mxPoint x="694" y="587.5" as="targetPoint" />
          </mxGeometry>
        </mxCell>
        <mxCell id="CdOAhMPhGqLmjzs1Hvdx-36" value="" style="endArrow=none;html=1;rounded=0;exitX=1;exitY=0.5;exitDx=0;exitDy=0;entryX=0;entryY=0;entryDx=0;entryDy=0;strokeWidth=2;" edge="1" parent="1" source="CdOAhMPhGqLmjzs1Hvdx-22" target="CdOAhMPhGqLmjzs1Hvdx-23">
          <mxGeometry width="50" height="50" relative="1" as="geometry">
            <mxPoint x="604" y="480.5" as="sourcePoint" />
            <mxPoint x="654" y="517.5" as="targetPoint" />
          </mxGeometry>
        </mxCell>
        <mxCell id="CdOAhMPhGqLmjzs1Hvdx-37" value="" style="endArrow=none;html=1;rounded=0;exitX=1;exitY=0.5;exitDx=0;exitDy=0;entryX=0;entryY=0.5;entryDx=0;entryDy=0;strokeWidth=2;" edge="1" parent="1" source="CdOAhMPhGqLmjzs1Hvdx-21" target="CdOAhMPhGqLmjzs1Hvdx-23">
          <mxGeometry width="50" height="50" relative="1" as="geometry">
            <mxPoint x="714" y="450.5" as="sourcePoint" />
            <mxPoint x="764" y="487.5" as="targetPoint" />
          </mxGeometry>
        </mxCell>
        <mxCell id="CdOAhMPhGqLmjzs1Hvdx-38" value="" style="endArrow=none;html=1;rounded=0;exitX=1;exitY=0.5;exitDx=0;exitDy=0;entryX=0.332;entryY=1.006;entryDx=0;entryDy=0;strokeWidth=2;entryPerimeter=0;" edge="1" parent="1" source="CdOAhMPhGqLmjzs1Hvdx-20" target="CdOAhMPhGqLmjzs1Hvdx-23">
          <mxGeometry width="50" height="50" relative="1" as="geometry">
            <mxPoint x="674" y="460.5" as="sourcePoint" />
            <mxPoint x="724" y="497.5" as="targetPoint" />
          </mxGeometry>
        </mxCell>
        <mxCell id="CdOAhMPhGqLmjzs1Hvdx-39" value="" style="endArrow=classic;html=1;rounded=0;" edge="1" parent="1">
          <mxGeometry width="50" height="50" relative="1" as="geometry">
            <mxPoint x="734" y="500.5" as="sourcePoint" />
            <mxPoint x="734" y="300.5" as="targetPoint" />
          </mxGeometry>
        </mxCell>
        <mxCell id="CdOAhMPhGqLmjzs1Hvdx-40" value="" style="endArrow=classic;html=1;rounded=0;" edge="1" parent="1">
          <mxGeometry width="50" height="50" relative="1" as="geometry">
            <mxPoint x="704" y="470.5" as="sourcePoint" />
            <mxPoint x="974" y="470.5" as="targetPoint" />
          </mxGeometry>
        </mxCell>
        <mxCell id="CdOAhMPhGqLmjzs1Hvdx-41" value="" style="endArrow=none;html=1;rounded=0;strokeColor=default;startArrow=none;startFill=0;targetPerimeterSpacing=0;snapToPoint=0;flowAnimation=0;" edge="1" parent="1">
          <mxGeometry width="50" height="50" relative="1" as="geometry">
            <mxPoint x="744" y="440.5" as="sourcePoint" />
            <mxPoint x="884" y="420.5" as="targetPoint" />
            <Array as="points">
              <mxPoint x="764" y="400.5" />
              <mxPoint x="794" y="430.5" />
              <mxPoint x="814" y="410.5" />
              <mxPoint x="834" y="440.5" />
              <mxPoint x="864" y="350.5" />
            </Array>
          </mxGeometry>
        </mxCell>
        <mxCell id="CdOAhMPhGqLmjzs1Hvdx-42" value="" style="ellipse;whiteSpace=wrap;html=1;aspect=fixed;fillStyle=solid;strokeColor=default;fillColor=#000000;" vertex="1" parent="1">
          <mxGeometry x="860" y="347.5" width="7" height="7" as="geometry" />
        </mxCell>
        <mxCell id="CdOAhMPhGqLmjzs1Hvdx-43" value="" style="ellipse;whiteSpace=wrap;html=1;aspect=fixed;fillStyle=solid;strokeColor=default;fillColor=#000000;" vertex="1" parent="1">
          <mxGeometry x="810" y="407.5" width="7" height="7" as="geometry" />
        </mxCell>
        <mxCell id="CdOAhMPhGqLmjzs1Hvdx-44" value="" style="ellipse;whiteSpace=wrap;html=1;aspect=fixed;fillStyle=solid;strokeColor=default;fillColor=#000000;" vertex="1" parent="1">
          <mxGeometry x="760" y="397.5" width="7" height="7" as="geometry" />
        </mxCell>
        <mxCell id="CdOAhMPhGqLmjzs1Hvdx-45" value="" style="ellipse;whiteSpace=wrap;html=1;aspect=fixed;fillStyle=solid;strokeColor=default;fillColor=#000000;" vertex="1" parent="1">
          <mxGeometry x="791" y="426.5" width="7" height="7" as="geometry" />
        </mxCell>
        <mxCell id="CdOAhMPhGqLmjzs1Hvdx-46" value="" style="ellipse;whiteSpace=wrap;html=1;aspect=fixed;fillStyle=solid;strokeColor=default;fillColor=#000000;" vertex="1" parent="1">
          <mxGeometry x="831" y="436.5" width="7" height="7" as="geometry" />
        </mxCell>
        <mxCell id="CdOAhMPhGqLmjzs1Hvdx-47" value="" style="ellipse;whiteSpace=wrap;html=1;aspect=fixed;fillStyle=solid;strokeColor=default;fillColor=#000000;" vertex="1" parent="1">
          <mxGeometry x="881" y="417.5" width="7" height="7" as="geometry" />
        </mxCell>
        <mxCell id="CdOAhMPhGqLmjzs1Hvdx-48" value="" style="ellipse;whiteSpace=wrap;html=1;fillStyle=solid;strokeColor=default;fillColor=#000000;aspect=fixed;" vertex="1" parent="1">
          <mxGeometry x="740" y="437.5" width="7" height="7" as="geometry" />
        </mxCell>
        <mxCell id="CdOAhMPhGqLmjzs1Hvdx-49" value="" style="shape=flexArrow;endArrow=classic;html=1;rounded=0;fillColor=light-dark(#0033ff, #ededed);strokeColor=none;width=16;endSize=6.892;" edge="1" parent="1">
          <mxGeometry width="50" height="50" relative="1" as="geometry">
            <mxPoint x="304" y="396.5" as="sourcePoint" />
            <mxPoint x="374" y="396.5" as="targetPoint" />
          </mxGeometry>
        </mxCell>
        <mxCell id="CdOAhMPhGqLmjzs1Hvdx-50" value="" style="shape=flexArrow;endArrow=classic;html=1;rounded=0;fillColor=light-dark(#0033ff, #ededed);strokeColor=none;width=16;endSize=6.892;" edge="1" parent="1">
          <mxGeometry width="50" height="50" relative="1" as="geometry">
            <mxPoint x="622" y="396.5" as="sourcePoint" />
            <mxPoint x="692" y="396.5" as="targetPoint" />
          </mxGeometry>
        </mxCell>
        <mxCell id="CdOAhMPhGqLmjzs1Hvdx-51" value="" style="endArrow=none;html=1;rounded=0;exitX=0.635;exitY=0.54;exitDx=0;exitDy=0;exitPerimeter=0;strokeColor=light-dark(#ff0000, #ededed);strokeWidth=2;" edge="1" parent="1" source="CdOAhMPhGqLmjzs1Hvdx-47">
          <mxGeometry width="50" height="50" relative="1" as="geometry">
            <mxPoint x="864" y="456" as="sourcePoint" />
            <mxPoint x="934" y="416" as="targetPoint" />
            <Array as="points">
              <mxPoint x="904" y="446" />
            </Array>
          </mxGeometry>
        </mxCell>
        <mxCell id="CdOAhMPhGqLmjzs1Hvdx-52" value="" style="ellipse;whiteSpace=wrap;html=1;aspect=fixed;fillStyle=solid;strokeColor=none;fillColor=light-dark(#ff0000, #ededed);" vertex="1" parent="1">
          <mxGeometry x="900" y="442" width="7" height="7" as="geometry" />
        </mxCell>
        <mxCell id="CdOAhMPhGqLmjzs1Hvdx-53" value="" style="ellipse;whiteSpace=wrap;html=1;aspect=fixed;fillStyle=solid;strokeColor=none;fillColor=light-dark(#ff0000, #ededed);" vertex="1" parent="1">
          <mxGeometry x="930" y="412" width="7" height="7" as="geometry" />
        </mxCell>
        <mxCell id="CdOAhMPhGqLmjzs1Hvdx-54" value="&lt;span&gt;&lt;font&gt;Entrada Serie de Tiempo&lt;/font&gt;&lt;/span&gt;" style="text;html=1;align=center;verticalAlign=middle;whiteSpace=wrap;rounded=0;fontSize=18;fontStyle=1" vertex="1" parent="1">
          <mxGeometry x="60" y="216" width="204" height="30" as="geometry" />
        </mxCell>
        <mxCell id="CdOAhMPhGqLmjzs1Hvdx-55" value="&lt;b&gt;&lt;font&gt;PredicciÃ³n Serie de Tiempo&lt;/font&gt;&lt;/b&gt;" style="text;html=1;align=center;verticalAlign=middle;whiteSpace=wrap;rounded=0;fontSize=18;fontFamily=Helvetica;" vertex="1" parent="1">
          <mxGeometry x="747" y="216" width="204" height="30" as="geometry" />
        </mxCell>
        <mxCell id="CdOAhMPhGqLmjzs1Hvdx-56" value="&lt;b&gt;&lt;font&gt;Modelo de Machine Learning&lt;/font&gt;&lt;/b&gt;" style="text;html=1;align=center;verticalAlign=middle;whiteSpace=wrap;rounded=0;fontSize=18;" vertex="1" parent="1">
          <mxGeometry x="387" y="216" width="217" height="30" as="geometry" />
        </mxCell>
        <mxCell id="CdOAhMPhGqLmjzs1Hvdx-57" value="Valor" style="text;html=1;align=center;verticalAlign=middle;whiteSpace=wrap;rounded=0;" vertex="1" parent="1">
          <mxGeometry y="306" width="60" height="30" as="geometry" />
        </mxCell>
        <mxCell id="CdOAhMPhGqLmjzs1Hvdx-58" value="Valor" style="text;html=1;align=center;verticalAlign=middle;whiteSpace=wrap;rounded=0;" vertex="1" parent="1">
          <mxGeometry x="680" y="306" width="60" height="30" as="geometry" />
        </mxCell>
        <mxCell id="CdOAhMPhGqLmjzs1Hvdx-59" value="Tiempo" style="text;html=1;align=center;verticalAlign=middle;whiteSpace=wrap;rounded=0;" vertex="1" parent="1">
          <mxGeometry x="254" y="476" width="60" height="30" as="geometry" />
        </mxCell>
        <mxCell id="CdOAhMPhGqLmjzs1Hvdx-60" value="Tiempo" style="text;html=1;align=center;verticalAlign=middle;whiteSpace=wrap;rounded=0;" vertex="1" parent="1">
          <mxGeometry x="937" y="476" width="60" height="30" as="geometry" />
        </mxCell>
      </root>
    </mxGraphModel>
  </diagram>
</mxfile>
